<svg xmlns="http://www.w3.org/2000/svg" width="76.911" height="32.764" viewBox="0 0 76.911 32.764">
  <g id="isn_logo" transform="translate(-379.274 -505.388)">
    <rect id="Rectangle_57" data-name="Rectangle 57" width="76.889" height="32.761" transform="translate(379.28 505.392)" fill="none"/>
    <path id="Path_2" data-name="Path 2" d="M996.329,1325.815a3.017,3.017,0,0,1,3.668,2.24,3.064,3.064,0,0,1-2.17,3.636c-3.873,1.023-5.524-4.868-1.5-5.877Zm-.853-1.836c-.145.119.12-.021-.157.11-.145.068-.04.016-.219.053a5.08,5.08,0,0,0-2,1.527,5.015,5.015,0,0,0-.658,1.093c-.18.423-.236,1.007-.411,1.369v1.178c.195.416.251,1.11.522,1.645a.547.547,0,0,1,.13.162c.081.126-.03-.114.048.134a5.041,5.041,0,0,0,2.583,2.179c.153,3.361-.144,7.533.075,10.667.064.916.425,2.892.428,3.033.068.079.041-.062.124.229a1.053,1.053,0,0,1,.021.247c.121.393.227.759.357,1.112a8.9,8.9,0,0,1,.391,1.025c.089.071.06.021.137.13.1.137.026.046.076.194l.03.1c.086.08.071.03.177.191a1.08,1.08,0,0,1,.1.236,7.758,7.758,0,0,0,3.061,3.022l.433.155.023.128c.186.013.986.323,1.322.4,2.622.631,3.728-.106,4.649-.18.1-.179.126-.133.359-.188a7.953,7.953,0,0,0,2.521-1.909,9.065,9.065,0,0,0,1.651-2.731.909.909,0,0,1,.071-.193.65.65,0,0,1,.108-.156l-.023-.029a1.048,1.048,0,0,1,.068-.2.606.606,0,0,1,.105-.161,14.675,14.675,0,0,0,.656-2.316,2.086,2.086,0,0,1,.061-.339c.145-.411-.009-.044.14-.219l.013-.259c.018-.085.051-.284.079-.361.081-.226.071-.139.137-.219l1.139-4.623a.917.917,0,0,1,.036-.321c.04-.13.044-.1.109-.164a14.069,14.069,0,0,1,.821-2.447c.037-.187,0-.066.069-.214.008-.016.038-.02.044-.056s.034-.034.051-.051a6.77,6.77,0,0,1,1.954-2.5.518.518,0,0,1,.139-.158c.125-.114-.136.063.13-.073l.115,0c.072-.083.034-.06.132-.138a.454.454,0,0,1,.169-.087l.321-.122.389-.159a13.871,13.871,0,0,1,2.2-.2c.769.044,1.382.292,1.963.345l.37.139a.419.419,0,0,1,.209.074c.25.153-.006-.017.15.142a5.423,5.423,0,0,1,1.673,1.314,6.631,6.631,0,0,1,1.152,1.858c.089.076.062.017.133.139s.029.046.052.213a12.308,12.308,0,0,1,.6,3.077c.072,1.83-.088,10.345-.017,10.924l-.091,4.228,2.886-.021c-.044-1.894.06-3.924.083-5.835.046-3.817.191-7.894.184-11.656a12.862,12.862,0,0,0-1.049-4.847,1.337,1.337,0,0,1-.114-.146.563.563,0,0,1-.068-.155l-.223-.435a8.82,8.82,0,0,0-1.752-2.319,7.7,7.7,0,0,0-2.423-1.578.856.856,0,0,1-.188-.07c-.156-.081-.084-.057-.168-.127l-.323-.079c-.065-.024-.214-.07-.271-.1-.195-.091-.122-.07-.206-.145l-.1.027c-.321-.044-.355-.006-.564-.226-.18.024-1.491-.191-1.86-.22a12.21,12.21,0,0,0-2.047.026,10.9,10.9,0,0,0-3.338.8.6.6,0,0,1-.172.114c-.1.054.061-.009-.148.041a7.311,7.311,0,0,0-2.539,2.058,11.685,11.685,0,0,0-1.714,2.823l-.115.31-.127.025c-.023.229-.695,1.842-.85,2.346l-2.048,7.588-.166.478c0,.228-.008.392-.23.515a8.042,8.042,0,0,1-1.139,2.373,3.525,3.525,0,0,1-2.116,1.455,4.009,4.009,0,0,1-4.692-2.216c-1.42-2.684-.47-7.849-.916-11.559-.068-.567-.207-1.052-.254-1.572a5.5,5.5,0,0,0,1.394-.433.642.642,0,0,1,.152-.126c.149-.1-.247.086.136-.056a5.078,5.078,0,0,0,2.023-2.283.587.587,0,0,1,.063-.234c.006-.018.03-.025.035-.061s.026-.037.039-.056a5.031,5.031,0,0,0-2.1-5.9,6.678,6.678,0,0,0-2.067-.74h-1.023l-1.092.219Z" transform="translate(-612.756 -818.372)" fill="#032413" fill-rule="evenodd"/>
    <path id="Path_3" data-name="Path 3" d="M5634.973,3089.546c-.135.093-.1.1-.4.112l-1.562-.047-.028-1.62,1.817-.042c.336.085.13.033.222.125C5635.72,3088.165,5635.7,3089.487,5634.973,3089.546Zm-.253-3.893c-.13.189-.569.128-.832.127a3.434,3.434,0,0,1-.875-.046l-.025-1.543c.293-.063,1.508-.154,1.72.084C5635.391,3084.359,5635.413,3085.58,5634.72,3085.653Zm1.693,6.041c.163-.112-.181.038.171-.106a1.04,1.04,0,0,1,.213-.062c1.551-.473,2.051-2.588,1.258-3.922a1.911,1.911,0,0,0-.727-.721l-.269-.209c.308-.391.682-.535.857-1.244l.04-1.337.049-.054c-.043-.061-.042.012-.123-.229-.02-.059-.046-.209-.061-.27-.461-1.885-3.458-1.6-4.771-1.6-.532,0-1.065,0-1.6,0s-1.09-.113-1.184.4c-.073.4-.014,5.511-.014,6.386,0,.562-.149,2.768.155,3.023.379.318,5.112.084,6-.06Z" transform="translate(-5191.321 -2553.936)" fill="#032413" fill-rule="evenodd"/>
    <path id="Path_4" data-name="Path 4" d="M5828.623,1458.527l1.084-.132c-.113-1.263,0-10.375-.015-12.547a39.062,39.062,0,0,1-.108-4c.437.594.9,1.426,1.323,2.1,1.028,1.661,3.11,4.534,4.332,6.252,1.795,2.524,4.051,5.948,5.8,8.253a1.911,1.911,0,0,0,1.084.088c.236-.286.114-8.13.114-9.118,0-1.312.131-8.686-.069-9.283a2.021,2.021,0,0,0-1.062-.019c-.164.5-.083,10.165-.072,12.045.005,1.01.253,3.046.148,3.855a1.349,1.349,0,0,1,.052.844l-.167-.13a12.087,12.087,0,0,0-.685-1.1c-2.831-4.6-6.627-9.492-9.7-14.055-.192-.285-.874-1.424-1.224-1.506-1.175-.274-.93.545-.928,1.117.007,2.794-.105,17.083.095,17.327Z" transform="translate(-5387.056 -933.145)" fill="#032413" fill-rule="evenodd"/>
    <path id="Path_5" data-name="Path 5" d="M4130.756,3084.319c-.019-.968,0-1.942,0-2.91,0-.576-.071-.753-.665-.77-1.683-.047-2.106-.158-2.109.769-.006,1.695-.076,7.442,0,8.612.035.518.28.557.8.56.417,0,1.061.033,1.454-.007.581-.058.515-.374.513-.93,0-.944-.01-1.894,0-2.854l2.7.012c.015.771-.146,3.511.229,3.724a7.6,7.6,0,0,0,2.345-.042c.328-.208.2-1.614.2-2.137v-4.724c0-3.4.3-2.969-1.726-2.981-1.2-.007-1.042.172-1.041,1.305,0,.788.015,1.591-.006,2.389l-2.692-.017Z" transform="translate(-3708.361 -2552.637)" fill="#032413" fill-rule="evenodd"/>
    <path id="Path_6" data-name="Path 6" d="M4486.776,1426.621a.536.536,0,0,1,.187.075c.137.078.067.051.149.13a16.841,16.841,0,0,0,4.9.95c.181.007.326.028.511.049a1.015,1.015,0,0,1,.263.039c.376.125.064-.01.206.129a6.358,6.358,0,0,1,2.477.777c2.044,1.219,2.058,5-.7,6.27-2.071.952-5.675,1.032-7.823-.776a6.046,6.046,0,0,1-1.376-1.851c-.113-.116,0,.079-.156-.2-.032-.056-.1-.229-.133-.307l-.093-.3a1.728,1.728,0,0,0-1.062.3,6.693,6.693,0,0,0,1.313,2.572,5.884,5.884,0,0,0,2.2,1.7c.379.068.029-.025.165.035a.627.627,0,0,1,.183.105l.019-.023a2.149,2.149,0,0,1,.261.065c.336.129.156.068.247.17.335,0,.852.163,1.309.211a13.223,13.223,0,0,0,2.9,0c.469-.044,1.024-.21,1.386-.208.1-.1-.077-.035.193-.141a1.944,1.944,0,0,1,.352-.074c1.136-.28,2.892-1.64,3.065-2.785a.74.74,0,0,1,.045-.211c.107-.254.074-.138.153-.231a8.529,8.529,0,0,0,.17-1.86,7.584,7.584,0,0,0-.33-1.724.516.516,0,0,1-.126-.146,1.013,1.013,0,0,1-.09-.195c-.265-.839-1.761-1.8-2.871-2.043a1.792,1.792,0,0,1-.305-.042c-.387-.12-.158-.038-.286-.192l-2.384-.292c-.226-.008-.444-.031-.671-.053a2.568,2.568,0,0,1-.279-.034c-.248-.063-.124-.034-.225-.116a8.713,8.713,0,0,1-2.783-.639.8.8,0,0,1-.259-.081c-.176-.091-.128-.1-.2-.167a3.084,3.084,0,0,1-1.545-3.112,3.408,3.408,0,0,1,1.781-2.886c.086-.1-.054-.084.26-.137l-.011.007c.073-.089.022-.065.139-.141.133-.086.052-.033.2-.058l.42-.107c.085-.085-.017-.059.212-.157.015-.007.172-.041.18-.042a3.243,3.243,0,0,1,.5-.059c1.607-.021,2.987-.314,4.47.371.273.073.242.008.365.23.615-.012,1.794,1.444,2.167,2.014a6.9,6.9,0,0,0,.559.886,2.392,2.392,0,0,0,.959-.4l-.078-.438c-.106-.079-.057-.013-.145-.128s-.03-.053-.084-.2a6.526,6.526,0,0,0-1.218-1.694,5.06,5.06,0,0,0-1.785-1.229,1.057,1.057,0,0,1-.193-.069.729.729,0,0,1-.16-.105l-.312-.067c-.233-.033-.2,0-.408-.143l-.533-.1c-.147-.01-.346-.015-.478-.033a1.829,1.829,0,0,1-.2-.038c-.205-.059-.118-.051-.175-.086-1.354.147-2.244-.227-4.242.465a5.023,5.023,0,0,0-2.718,2.085,5.083,5.083,0,0,0,.21,5.458,3.506,3.506,0,0,0,1.367,1.032Z" transform="translate(-4059.955 -910.986)" fill="#032413" fill-rule="evenodd"/>
    <path id="Path_7" data-name="Path 7" d="M6323.121,3074.127a1.234,1.234,0,0,1,.305.05c.288.1.1.052.2.135.63.148.645.715.26,1.1-.094.094,0,.043-.152.132-.222.13-.016.015-.206.058a4.532,4.532,0,0,1-1.758-.089c-.663-.286-.519-.507-.964-.917-.487-.1-.719.133-1.122.2a.421.421,0,0,1-.161.11c-.137.06-.035.021-.238.048-.273.154-.542.123-.723.441-.239.78.919,1.822,1.445,2.072.231.067.24.021.338.2l.011-.029c.264.044.288,0,.424.189l1.077.184h1.664a14.752,14.752,0,0,1,1.55-.416c.078-.094.015-.055.133-.134.147-.1.027-.019.2-.073a2.838,2.838,0,0,0,1.159-1.1c.1-.255.042-.182.214-.317l.187-.768v-.913c-.384-.779-.161-1.1-.883-1.718a3.307,3.307,0,0,0-1.781-.778l-.709-.193-.773-.063a2.575,2.575,0,0,1-.386-.035c-.227-.052-.2-.08-.255-.114-1.216-.335-.971-1.377.451-1.4,1.882-.034,1.151,1.269,2.274,1.043.1-.116-.045-.028.191-.166.023-.014.131-.055.158-.066a1.176,1.176,0,0,1,.364-.12,4.812,4.812,0,0,0,.733-.3c.339-.164.348-.268.359-.694-.108-.081-.05-.007-.139-.125-.1-.136-.021-.033-.083-.2a2.963,2.963,0,0,0-1.714-1.392,2.238,2.238,0,0,1-.273-.057c-.375-.129-.086-.026-.225-.132-.633-.014-1.189-.15-1.948-.111-1.636.083-3.374.779-3.688,2.6-.5,2.9,2.024,3.644,4.485,3.835Z" transform="translate(-5870.78 -2539.874)" fill="#032413" fill-rule="evenodd"/>
    <path id="Path_8" data-name="Path 8" d="M4875.522,3090.9c.08.071.057.023.128.135.1.152.017.021.072.2a2.886,2.886,0,0,0,1.341,1.312c.162.046.022-.031.191.066.118.068.064.052.131.138l1.484.35h1.339c.027-.012,1.525-.418,1.54-.42l.046-.126.244-.091a3.132,3.132,0,0,0,1.49-1.965,50.228,50.228,0,0,0,.165-6.851c-.018-.747-.355-.682-1.059-.679a4.579,4.579,0,0,0-1.62.123c-.371,1.3.238,6.254-.286,7.03a1.684,1.684,0,0,1-2.53-.045,14.618,14.618,0,0,1-.156-3.528c0-4.025.459-3.572-1.876-3.581-.824,0-.9.094-.9.912l0,5.49A11.807,11.807,0,0,0,4875.522,3090.9Z" transform="translate(-4446.077 -2554.958)" fill="#032413" fill-rule="evenodd"/>
    <path id="Path_9" data-name="Path 9" d="M1147.671,1476.269c-4.026,1.009-2.375,6.9,1.5,5.877a3.065,3.065,0,0,0,2.17-3.637,3.017,3.017,0,0,0-3.668-2.24Z" transform="translate(-764.098 -968.826)" fill="#99cc32" fill-rule="evenodd"/>
    <path id="Path_10" data-name="Path 10" d="M4137.434,1440.966c-.17-.108-.889-.2-1.023.1a6.4,6.4,0,0,0-.04,1.192c0,2.327-.1,16.358.045,17.117a2.519,2.519,0,0,0,1.093.007c.167-.5.053-14.4.063-17.429,0-.618.092-.769-.139-.982Z" transform="translate(-3716.643 -933.969)" fill="#032413" fill-rule="evenodd"/>
    <path id="Path_11" data-name="Path 11" d="M5854.445,3556.668c.732-.059.747-1.382.053-1.473a10.145,10.145,0,0,0-1.949-.03v1.521l1.895-.018Z" transform="translate(-5410.794 -3021.057)" fill="#f6f6f6" fill-rule="evenodd"/>
    <path id="Path_12" data-name="Path 12" d="M5854.271,3261.542c.693-.073.672-1.294-.013-1.379a7.841,7.841,0,0,0-1.624-.028l0,1.414Z" transform="translate(-5410.874 -2729.825)" fill="#f6f6f6" fill-rule="evenodd"/>
    <path id="Path_13" data-name="Path 13" d="M6710.12,3654.588a.768.768,0,0,1-.083.168.652.652,0,0,1-.132.15,2.839,2.839,0,0,1-1.158,1.1l-.153.131c-.15.1-.088.04-.185.076a14.691,14.691,0,0,0-1.55.416h3.447v-2.805Z" transform="translate(-6254.122 -3118.479)" fill="#f6f6f6" fill-rule="evenodd"/>
    <path id="Path_14" data-name="Path 14" d="M3681.692,3505.077l-2.886.021.091-4.228c-.115.122-.078.069-.085.5l-.045,1.6a8.908,8.908,0,0,0,.014,2.2,11.927,11.927,0,0,0,1.517.028c.254,0,.508,0,.761,0C3681.809,3505.215,3681.606,3505.2,3681.692,3505.077Z" transform="translate(-3264.888 -2967.495)" fill="#8c9b93" fill-rule="evenodd"/>
    <path id="Path_15" data-name="Path 15" d="M5837.84,2868.9c.211.239.666.175.981.092l.1-.225Z" transform="translate(-5396.274 -2343.521)" fill="#8c9b93" fill-rule="evenodd"/>
    <path id="Path_16" data-name="Path 16" d="M6229.11,3251.808a1.038,1.038,0,0,0,.15-.658c.017-.372.048-.575-.111-.68Z" transform="translate(-5782.515 -2720.314)" fill="#8c9b93" fill-rule="evenodd"/>
    <path id="Path_17" data-name="Path 17" d="M6804.5,2873.738a1.912,1.912,0,0,1-1.084-.088c.059.092-.027.122.23.2a1.434,1.434,0,0,0,.3.025C6804.6,2873.893,6804.46,2873.794,6804.5,2873.738Z" transform="translate(-6349.441 -2348.338)" fill="#8c9b93" fill-rule="evenodd"/>
    <path id="Path_18" data-name="Path 18" d="M5098.949,2211c-.141-.138.171,0-.205-.129a1.02,1.02,0,0,0-.264-.039c-.185-.021-.329-.042-.511-.049a.342.342,0,0,0,.172.092,1.688,1.688,0,0,0,.261.041C5098.594,2210.937,5098.768,2210.972,5098.949,2211Z" transform="translate(-4665.915 -1693.989)" fill="#6a7b72" fill-rule="evenodd"/>
    <path id="Path_19" data-name="Path 19" d="M4826.049,1513.7a2.663,2.663,0,0,0,.893-.258,3.243,3.243,0,0,0-.5.059c-.008,0-.165.036-.18.042C4826.033,1513.64,4826.134,1513.614,4826.049,1513.7Z" transform="translate(-4397.489 -1005.613)" fill="#6a7b72" fill-rule="evenodd"/>
    <path id="Path_20" data-name="Path 20" d="M5110.344,1417.633a.58.58,0,0,0-.211-.1.7.7,0,0,0-.191-.028,2.261,2.261,0,0,0-.452-.026c.058.035-.031.027.174.086a1.937,1.937,0,0,0,.2.038C5110,1417.617,5110.2,1417.622,5110.344,1417.633Z" transform="translate(-4677.286 -910.881)" fill="#8c9b93" fill-rule="evenodd"/>
    <path id="Path_21" data-name="Path 21" d="M6805.57,2685.214l.167.13a1.349,1.349,0,0,0-.052-.844c-.013.189.012.275.005.419-.02.431.052.21-.121.294Z" transform="translate(-6351.563 -2161.619)" fill="#8c9b93" fill-rule="evenodd"/>
    <path id="Path_22" data-name="Path 22" d="M6814.529,3302.2c.14-.049.277-.1.41-.158a1.166,1.166,0,0,0,.157-.077c.245-.147.016-.006.146-.116a1.156,1.156,0,0,0-.364.12c-.027.011-.135.052-.158.066-.236.138-.092.05-.191.166Z" transform="translate(-6360.408 -2771.034)" fill="#6a7b72" fill-rule="evenodd"/>
    <path id="Path_23" data-name="Path 23" d="M4982.065,2103.263l-1.176-.2c.1.082-.022.053.226.116a2.637,2.637,0,0,0,.279.034c.228.022.446.045.671.053Z" transform="translate(-4550.339 -1587.654)" fill="#8c9b93" fill-rule="evenodd"/>
    <path id="Path_24" data-name="Path 24" d="M5258.381,2141.874a.462.462,0,0,0-.229-.131c-.087-.033-.269-.075-.363-.1.128.154-.1.072.286.192A1.811,1.811,0,0,0,5258.381,2141.874Z" transform="translate(-4823.68 -1625.738)" fill="#8c9b93" fill-rule="evenodd"/>
    <path id="Path_25" data-name="Path 25" d="M2580.49,2964.07c.088-.1.07.051.17-.284a2.12,2.12,0,0,0,.045-.3c-.065.08-.055-.008-.136.219C2580.542,2963.786,2580.509,2963.986,2580.49,2964.07Z" transform="translate(-2180.797 -2437.023)" fill="#8c9b93" fill-rule="evenodd"/>
    <path id="Path_26" data-name="Path 26" d="M5260.06,2875.3a1.173,1.173,0,0,0,.327-.073c.23-.093.138-.077.218-.142a2,2,0,0,0-.352.074c-.271.107-.1.041-.193.142Z" transform="translate(-4825.921 -2349.75)" fill="#8c9b93" fill-rule="evenodd"/>
    <path id="Path_27" data-name="Path 27" d="M2563.82,3029.348c.058-.065.054-.031.11-.148.01-.022.033-.091.04-.115a2.5,2.5,0,0,0,.052-.294c-.149.175,0-.192-.141.219A2.1,2.1,0,0,0,2563.82,3029.348Z" transform="translate(-2164.341 -2501.484)" fill="#6a7b72" fill-rule="evenodd"/>
    <path id="Path_28" data-name="Path 28" d="M3353.783,1674.666c-.079-.061-.009-.051-.215-.13-.078-.03-.259-.071-.349-.1C3353.428,1674.66,3353.462,1674.622,3353.783,1674.666Z" transform="translate(-2943.593 -1164.544)" fill="#6a7b72" fill-rule="evenodd"/>
    <path id="Path_29" data-name="Path 29" d="M4786.178,2873.875c-.09-.1.089-.042-.247-.17a2.243,2.243,0,0,0-.261-.065c.069.067.03.055.139.12.021.012.087.043.11.052A.876.876,0,0,0,4786.178,2873.875Z" transform="translate(-4357.629 -2348.328)" fill="#8c9b93" fill-rule="evenodd"/>
    <path id="Path_30" data-name="Path 30" d="M6603.212,3357.279a.481.481,0,0,0-.182-.083c-.024-.008-.1-.023-.125-.028-.123-.023-.214-.024-.335-.037.059.033.028.062.255.114A2.5,2.5,0,0,0,6603.212,3357.279Z" transform="translate(-6151.174 -2825.603)" fill="#6a7b72" fill-rule="evenodd"/>
    <path id="Path_31" data-name="Path 31" d="M3405.077,1690.151c-.113-.219-.226-.194-.477-.242.084.075.012.053.206.145.057.027.206.073.271.1Z" transform="translate(-2994.313 -1179.815)" fill="#8c9b93" fill-rule="evenodd"/>
    <path id="Path_32" data-name="Path 32" d="M4574.289,2532.783a1.71,1.71,0,0,0-.082-.259c-.13-.263-.07-.13-.207-.243.033.079.1.251.132.307.154.274.044.08.156.2Z" transform="translate(-4148.68 -2011.356)" fill="#8c9b93" fill-rule="evenodd"/>
    <path id="Path_33" data-name="Path 33" d="M1635.147,3646.212l-.024-.128-.433-.154C1634.911,3646.152,1634.642,3645.974,1635.147,3646.212Z" transform="translate(-1247.155 -3110.69)" fill="#6a7b72" fill-rule="evenodd"/>
    <path id="Path_34" data-name="Path 34" d="M6766.068,3077.09c-.1-.089.086-.027-.207-.138a1.043,1.043,0,0,0-.292-.051c.139.107-.15,0,.224.132a2.293,2.293,0,0,0,.274.057Z" transform="translate(-6312.077 -2548.976)" fill="#8c9b93" fill-rule="evenodd"/>
    <path id="Path_35" data-name="Path 35" d="M6221.913,3207.959a.951.951,0,0,0-.046-.295c-.1-.31-.046-.1-.137-.2.015.061.042.211.061.27C6221.871,3207.971,6221.87,3207.9,6221.913,3207.959Z" transform="translate(-5775.228 -2677.857)" fill="#8c9b93" fill-rule="evenodd"/>
    <path id="Path_36" data-name="Path 36" d="M6676.56,3569.375c-.093-.083.092-.038-.2-.135a1.23,1.23,0,0,0-.3-.05c.259.18.175.108.5.185Z" transform="translate(-6223.718 -3034.937)" fill="#8c9b93" fill-rule="evenodd"/>
    <path id="Path_37" data-name="Path 37" d="M2158.92,2949.8c.222-.124.23-.287.23-.515Z" transform="translate(-1764.646 -2423.005)" fill="#6a7b72" fill-rule="evenodd"/>
    <path id="Path_38" data-name="Path 38" d="M5540.92,2624.472c.086-.092.037.049.146-.207a.9.9,0,0,0,.052-.235c-.081.093-.046-.023-.154.231A.755.755,0,0,0,5540.92,2624.472Z" transform="translate(-5103.17 -2101.927)" fill="#6a7b72" fill-rule="evenodd"/>
    <path id="Path_39" data-name="Path 39" d="M1375.208,3378.057a1.075,1.075,0,0,0-.1-.236c-.105-.162-.09-.111-.176-.191a1.176,1.176,0,0,0,.107.251C1375.2,3378.135,1375.088,3377.952,1375.208,3378.057Z" transform="translate(-990.734 -2845.839)" fill="#6a7b72" fill-rule="evenodd"/>
    <path id="Path_40" data-name="Path 40" d="M6713.279,3373.783c-.078-.069-.018-.048-.156-.107a.869.869,0,0,0-.181-.045,3.691,3.691,0,0,0-.372-.04Z" transform="translate(-6259.759 -2841.852)" fill="#6a7b72" fill-rule="evenodd"/>
    <path id="Path_41" data-name="Path 41" d="M2685.92,2566.644c.132-.251-.1.464.09-.185a2.1,2.1,0,0,0,.055-.3c-.064.062-.069.034-.109.164a.919.919,0,0,0-.036.321Z" transform="translate(-2284.871 -2044.801)" fill="#8c9b93" fill-rule="evenodd"/>
    <path id="Path_42" data-name="Path 42" d="M3387.418,2121.035c-.156-.159.1.011-.149-.142a.424.424,0,0,0-.209-.074C3387.089,2120.972,3387.251,2120.981,3387.418,2121.035Z" transform="translate(-2976.998 -1605.185)" fill="#6a7b72" fill-rule="evenodd"/>
    <path id="Path_43" data-name="Path 43" d="M2175.5,2912.608l.166-.478c-.121.121-.019-.159-.147.2-.067.188-.018.175-.018.28Z" transform="translate(-1780.995 -2386.323)" fill="#8c9b93" fill-rule="evenodd"/>
    <path id="Path_44" data-name="Path 44" d="M2415.09,2113.675l.127-.024.115-.31c-.125.094-.044-.013-.138.127a.99.99,0,0,0-.1.208Z" transform="translate(-2017.523 -1597.802)" fill="#6a7b72" fill-rule="evenodd"/>
    <path id="Path_45" data-name="Path 45" d="M6461.043,3843.309c-.136-.191-.16-.144-.424-.188l.237.138A1.012,1.012,0,0,0,6461.043,3843.309Z" transform="translate(-6011.047 -3305.345)" fill="#8c9b93" fill-rule="evenodd"/>
    <path id="Path_46" data-name="Path 46" d="M4729.514,2034.268c-.017-.014-.039-.059-.048-.044s-.036-.033-.047-.041l-.359-.163c.067.068.02.076.2.167A.792.792,0,0,0,4729.514,2034.268Z" transform="translate(-4301.747 -1519.501)" fill="#6a7b72" fill-rule="evenodd"/>
    <path id="Path_47" data-name="Path 47" d="M5243.575,1542.5c-.124-.222-.092-.157-.365-.23.017.016.04.017.051.047s.089.072.11.085A1.941,1.941,0,0,0,5243.575,1542.5Z" transform="translate(-4809.288 -1034.073)" fill="#8c9b93" fill-rule="evenodd"/>
    <path id="Path_48" data-name="Path 48" d="M6112.141,3828.908c.242-.025.044.031.231-.041.148-.057.078-.02.153-.127a1.026,1.026,0,0,0-.212.062C6111.959,3828.947,6112.3,3828.8,6112.141,3828.908Z" transform="translate(-5667.048 -3291.15)" fill="#8c9b93" fill-rule="evenodd"/>
    <path id="Path_49" data-name="Path 49" d="M3467.186,1715.057c-.094-.191-.115-.142-.356-.2.083.069.011.046.167.127A.857.857,0,0,0,3467.186,1715.057Z" transform="translate(-3055.743 -1204.444)" fill="#6a7b72" fill-rule="evenodd"/>
    <path id="Path_50" data-name="Path 50" d="M5217.8,1438.073c-.072-.081-.023-.063-.165-.107s-.023-.013-.243-.036C5217.6,1438.077,5217.565,1438.04,5217.8,1438.073Z" transform="translate(-4783.799 -931.074)" fill="#6a7b72" fill-rule="evenodd"/>
    <path id="Path_51" data-name="Path 51" d="M2134.68,3670.819a.731.731,0,0,0,.193-.064c.169-.083.078-.051.166-.124C2134.805,3670.685,2134.779,3670.64,2134.68,3670.819Z" transform="translate(-1740.717 -3135.073)" fill="#8c9b93" fill-rule="evenodd"/>
    <path id="Path_52" data-name="Path 52" d="M4691.126,2121.066c-.082-.08-.012-.052-.149-.131a.527.527,0,0,0-.187-.075C4690.892,2121.049,4690.884,2121,4691.126,2121.066Z" transform="translate(-4263.969 -1605.225)" fill="#6a7b72" fill-rule="evenodd"/>
    <path id="Path_53" data-name="Path 53" d="M4766.79,1542.058c.12-.042.053.012.2-.076a.544.544,0,0,0,.146-.122c-.151.025-.069-.028-.2.058C4766.812,1541.993,4766.862,1541.969,4766.79,1542.058Z" transform="translate(-4338.992 -1033.668)" fill="#6a7b72" fill-rule="evenodd"/>
    <path id="Path_54" data-name="Path 54" d="M5527.336,2319.07c-.054-.3-.056-.213-.216-.34a1,1,0,0,0,.09.194A.511.511,0,0,0,5527.336,2319.07Z" transform="translate(-5089.548 -1800.551)" fill="#8c9b93" fill-rule="evenodd"/>
    <path id="Path_55" data-name="Path 55" d="M6707.42,3669.561c.19-.043-.017.072.206-.058.153-.09.058-.039.151-.133-.173.056-.053,0-.207.073A.436.436,0,0,0,6707.42,3669.561Z" transform="translate(-6254.676 -3133.829)" fill="#6a7b72" fill-rule="evenodd"/>
    <path id="Path_56" data-name="Path 56" d="M3634.935,2384.731c-.023-.167.023-.084-.052-.213s-.044-.063-.133-.139a.7.7,0,0,0,.071.194.725.725,0,0,0,.114.158Z" transform="translate(-3221.504 -1865.357)" fill="#6a7b72" fill-rule="evenodd"/>
    <path id="Path_57" data-name="Path 57" d="M5534.65,1695.465c-.043-.1.033-.023-.085-.181-.083-.111-.051-.06-.145-.144.055.144-.01.073.085.2S5534.543,1695.386,5534.65,1695.465Z" transform="translate(-5096.754 -1184.978)" fill="#8c9b93" fill-rule="evenodd"/>
    <path id="Path_58" data-name="Path 58" d="M5273.693,1454.4c-.113-.176-.114-.133-.353-.175a.731.731,0,0,0,.16.105A1.076,1.076,0,0,0,5273.693,1454.4Z" transform="translate(-4839.03 -947.164)" fill="#8c9b93" fill-rule="evenodd"/>
    <path id="Path_59" data-name="Path 59" d="M5015.1,3829.194c-.068-.085-.014-.071-.131-.138-.169-.1-.029-.02-.191-.066a.558.558,0,0,0,.139.126C5015.056,3829.209,5014.994,3829.154,5015.1,3829.194Z" transform="translate(-4583.794 -3291.397)" fill="#6a7b72" fill-rule="evenodd"/>
    <path id="Path_60" data-name="Path 60" d="M1230.84,1340.953c.178-.037.074.015.219-.053.277-.131.012.009.157-.109-.16.037-.025-.031-.209.055C1230.845,1340.92,1230.914,1340.9,1230.84,1340.953Z" transform="translate(-848.496 -835.183)" fill="#8c9b93" fill-rule="evenodd"/>
    <path id="Path_61" data-name="Path 61" d="M1356.233,3345.283c-.05-.147.022-.056-.076-.194-.077-.108-.048-.059-.137-.13.041.1-.009.036.08.181C1356.171,3345.256,1356.157,3345.21,1356.233,3345.283Z" transform="translate(-972.067 -2813.589)" fill="#8c9b93" fill-rule="evenodd"/>
    <path id="Path_62" data-name="Path 62" d="M2499.35,3252.67c.073-.07.063-.029.126-.148s.026-.047.047-.212a.607.607,0,0,0-.105.161A1.011,1.011,0,0,0,2499.35,3252.67Z" transform="translate(-2100.7 -2722.13)" fill="#8c9b93" fill-rule="evenodd"/>
    <path id="Path_63" data-name="Path 63" d="M2487.2,3282.9c.085-.074.062-.021.131-.142s.028-.069.048-.207a.643.643,0,0,0-.108.156A.934.934,0,0,0,2487.2,3282.9Z" transform="translate(-2088.706 -2751.981)" fill="#8c9b93" fill-rule="evenodd"/>
    <path id="Path_64" data-name="Path 64" d="M6937.961,3200.25a.625.625,0,0,0-.082-.173c-.154-.237.017,0-.139-.147.061.163-.019.06.083.2C6937.911,3200.243,6937.854,3200.17,6937.961,3200.25Z" transform="translate(-6482.035 -2670.424)" fill="#8c9b93" fill-rule="evenodd"/>
    <path id="Path_65" data-name="Path 65" d="M2955.78,2120.635c.269-.1.17-.034.3-.225a.458.458,0,0,0-.168.087C2955.814,2120.574,2955.852,2120.552,2955.78,2120.635Z" transform="translate(-2551.263 -1604.781)" fill="#8c9b93" fill-rule="evenodd"/>
    <path id="Path_66" data-name="Path 66" d="M4895.12,3700.919c-.055-.183.025-.052-.072-.2-.071-.111-.049-.064-.128-.135a.657.657,0,0,0,.075.183C4895.145,3701.033,4894.994,3700.774,4895.12,3700.919Z" transform="translate(-4465.475 -3164.638)" fill="#8c9b93" fill-rule="evenodd"/>
    <path id="Path_67" data-name="Path 67" d="M3819.483,2033.7a.574.574,0,0,0-.065-.246c-.147-.28-.047-.078-.158-.188l.223.435Z" transform="translate(-3403.642 -1518.761)" fill="#6a7b72" fill-rule="evenodd"/>
    <path id="Path_68" data-name="Path 68" d="M1286.665,3142.066a1.059,1.059,0,0,0-.021-.247c-.083-.292-.057-.151-.124-.229Z" transform="translate(-903.46 -2612.833)" fill="#8c9b93" fill-rule="evenodd"/>
    <path id="Path_69" data-name="Path 69" d="M5379.29,3822.777a.642.642,0,0,0,.2-.121c.014-.01.037-.017.048-.047s.028-.033.042-.049l-.243.091-.046.127Z" transform="translate(-4943.618 -3285.049)" fill="#6a7b72" fill-rule="evenodd"/>
    <path id="Path_70" data-name="Path 70" d="M6377.29,3621.968c.2-.026.1.012.238-.048a.424.424,0,0,0,.16-.11l-.279.082c-.017.007-.047.054-.06.037s-.04.027-.06.04Z" transform="translate(-5928.789 -3086.88)" fill="#8c9b93" fill-rule="evenodd"/>
    <path id="Path_71" data-name="Path 71" d="M3358.62,2110.179l-.37-.139C3358.378,2110.217,3358.38,2110.175,3358.62,2110.179Z" transform="translate(-2948.559 -1594.544)" fill="#6a7b72" fill-rule="evenodd"/>
    <path id="Path_72" data-name="Path 72" d="M3836.8,2067.381c-.027-.16.019-.073-.062-.193s-.035-.047-.121-.108a.573.573,0,0,0,.068.154,1.339,1.339,0,0,0,.114.147Z" transform="translate(-3420.779 -1552.136)" fill="#8c9b93" fill-rule="evenodd"/>
    <path id="Path_73" data-name="Path 73" d="M6943.75,3713.877a.654.654,0,0,0,.132-.15.729.729,0,0,0,.082-.167C6943.792,3713.7,6943.849,3713.622,6943.75,3713.877Z" transform="translate(-6487.967 -3177.451)" fill="#8c9b93" fill-rule="evenodd"/>
    <path id="Path_74" data-name="Path 74" d="M2761.11,2351.19c.015-.016.04-.059.046-.048s.033-.038.041-.054c.071-.149.026-.013.077-.219-.016.017-.044.015-.051.051s-.036.039-.044.055c-.069.148-.032.028-.069.214Z" transform="translate(-2359.095 -1832.278)" fill="#6a7b72" fill-rule="evenodd"/>
    <path id="Path_75" data-name="Path 75" d="M1737.96,1840.941c.014-.019.039-.067.044-.056s.032-.043.038-.061c.057-.162.026-.013.055-.234-.013.019-.034.021-.039.056s-.028.043-.035.061A.588.588,0,0,0,1737.96,1840.941Z" transform="translate(-1349.097 -1328.558)" fill="#8c9b93" fill-rule="evenodd"/>
    <path id="Path_76" data-name="Path 76" d="M6433.789,3829.823c-.1-.182-.107-.135-.338-.2Z" transform="translate(-5984.228 -3292.019)" fill="#8c9b93" fill-rule="evenodd"/>
    <path id="Path_77" data-name="Path 77" d="M2764.82,1721.571c.208-.05.043.013.148-.041a.61.61,0,0,0,.172-.114c-.027.005-.065-.017-.079.016s-.057.013-.074.021A.411.411,0,0,0,2764.82,1721.571Z" transform="translate(-2362.757 -1210.914)" fill="#8c9b93" fill-rule="evenodd"/>
    <path id="Path_78" data-name="Path 78" d="M2925.86,2138.411c.214-.106.015.031.124-.069a.567.567,0,0,0,.146-.162c-.266.135-.005-.041-.13.073a.512.512,0,0,0-.139.158Z" transform="translate(-2521.727 -1622.322)" fill="#6a7b72" fill-rule="evenodd"/>
    <path id="Path_79" data-name="Path 79" d="M1032.848,1883.6c-.078-.248.033-.008-.048-.134a.542.542,0,0,0-.13-.162c.131.433-.046,0,.05.144A.442.442,0,0,0,1032.848,1883.6Z" transform="translate(-652.874 -1370.719)" fill="#6a7b72" fill-rule="evenodd"/>
    <path id="Path_80" data-name="Path 80" d="M3004.12,2098.708c.231-.033.086.014.233-.052.28-.125,0,.014.156-.107Z" transform="translate(-2598.981 -1583.202)" fill="#6a7b72" fill-rule="evenodd"/>
    <path id="Path_81" data-name="Path 81" d="M1558.16,2045.7c.257-.079.011.036.134-.048a.441.441,0,0,0,.155-.134c-.383.142.013-.044-.136.056A.636.636,0,0,0,1558.16,2045.7Z" transform="translate(-1171.609 -1530.854)" fill="#8c9b93" fill-rule="evenodd"/>
    <path id="Path_82" data-name="Path 82" d="M4757.487,2864.63a.6.6,0,0,0-.182-.105c-.136-.06.214.033-.166-.035l.267.128c.016-.021.054.008.081.013Z" transform="translate(-4329.466 -2339.296)" fill="#8c9b93" fill-rule="evenodd"/>
    <path id="Path_83" data-name="Path 83" d="M4747.39,1556.887l.259-.137C4747.335,1556.8,4747.477,1556.784,4747.39,1556.887Z" transform="translate(-4319.841 -1048.367)" fill="#8c9b93" fill-rule="evenodd"/>
  </g>
</svg>
